<svg xmlns="http://www.w3.org/2000/svg" viewBox="-5079 1053.556 12.504 13.198"><defs><style>.a{fill:#222;}</style></defs><path class="a" d="M20.252,12a10.957,10.957,0,0,0-4.315.792,4.285,4.285,0,0,0-1.378.9A1.837,1.837,0,0,0,14,14.952v7.294a1.825,1.825,0,0,0,.559,1.254,4.294,4.294,0,0,0,1.378.906,10.957,10.957,0,0,0,4.315.792,10.957,10.957,0,0,0,4.315-.792,4.294,4.294,0,0,0,1.378-.906,1.825,1.825,0,0,0,.559-1.254V14.952a1.837,1.837,0,0,0-.559-1.259,4.286,4.286,0,0,0-1.378-.9A10.957,10.957,0,0,0,20.252,12Zm0,.695a10.356,10.356,0,0,1,4.032.733,3.668,3.668,0,0,1,1.156.749.995.995,0,0,1,0,1.547,3.668,3.668,0,0,1-1.156.749,10.349,10.349,0,0,1-4.032.738,10.352,10.352,0,0,1-4.032-.738,3.668,3.668,0,0,1-1.156-.749.995.995,0,0,1,0-1.547,3.668,3.668,0,0,1,1.156-.749A10.358,10.358,0,0,1,20.252,12.695Zm-5.557,3.642a4.541,4.541,0,0,0,1.243.776,10.957,10.957,0,0,0,4.315.792,10.957,10.957,0,0,0,4.315-.792,4.541,4.541,0,0,0,1.243-.776v1.047a1.115,1.115,0,0,1-.369.771,3.668,3.668,0,0,1-1.156.749,10.349,10.349,0,0,1-4.032.738,10.352,10.352,0,0,1-4.032-.738,3.668,3.668,0,0,1-1.156-.749,1.115,1.115,0,0,1-.369-.771Zm0,2.431a4.558,4.558,0,0,0,1.243.776,10.957,10.957,0,0,0,4.315.792,10.957,10.957,0,0,0,4.315-.792,4.541,4.541,0,0,0,1.243-.776v1.047a1.115,1.115,0,0,1-.369.771,3.668,3.668,0,0,1-1.156.749,10.349,10.349,0,0,1-4.032.738,10.352,10.352,0,0,1-4.032-.738,3.668,3.668,0,0,1-1.156-.749,1.115,1.115,0,0,1-.369-.771Zm0,2.431a4.558,4.558,0,0,0,1.243.776,10.957,10.957,0,0,0,4.315.792,10.957,10.957,0,0,0,4.315-.792,4.541,4.541,0,0,0,1.243-.776v1.047a1.115,1.115,0,0,1-.369.771,3.636,3.636,0,0,1-1.151.749,10.378,10.378,0,0,1-4.038.738,10.352,10.352,0,0,1-4.032-.738,3.668,3.668,0,0,1-1.156-.749,1.115,1.115,0,0,1-.369-.771Z" transform="translate(-5092.999 1041.556)"/></svg>