<svg xmlns="http://www.w3.org/2000/svg" viewBox="0 0 352.69 83.52"><defs><style>.cls-1{fill:#6cadc6;}.cls-2{fill:#fff;}</style></defs><title>pwyf-strap</title><g id="Layer_2" data-name="Layer 2"><g id="Layer_1-2" data-name="Layer 1"><path class="cls-1" d="M120.71,0H10.7A10.7,10.7,0,0,0,0,10.71V53.49A10.71,10.71,0,0,0,10.7,64.2H33.29l15.34,18-4.86-18h76.94a10.72,10.72,0,0,0,10.71-10.71V10.71A10.71,10.71,0,0,0,120.71,0"/><path class="cls-1" d="M165.2,27.1h3L162.65,55h-3.5l-4.38-17.83c-.44-1.84-1-4.58-1.36-6.29-.32,1.71-.91,4.38-1.35,6.29L147.68,55h-3.43L138.68,27.1h3.11L145.05,45c.32,1.83.8,4.85,1,6.21.24-1.36.88-4.34,1.31-6.13l4.42-18h3.34l4.42,18c.44,1.79,1.08,4.77,1.32,6.13.23-1.36.71-4.38,1-6.21Zm14.27,6.53a6.75,6.75,0,0,0-5.77,3V26l-3,1.67V55h3V42.75c0-4.58,2.27-6.53,5.18-6.53,3.34,0,4.93,2,4.93,6.53V55h3V42.23C186.8,36.22,183.89,33.63,179.47,33.63Zm26,6.77V55h-3V52.42a8.65,8.65,0,0,1-6.53,3c-3.27,0-6.69-1.64-6.69-6.69,0-4.7,3.86-6.69,8-6.69a11.21,11.21,0,0,1,5.22,1.2V40.76c0-3.11-1.48-4.62-4.54-4.62a10.94,10.94,0,0,0-5.69,1.59l-1.12-2.43a15,15,0,0,1,7-1.67C202.68,33.63,205.51,35.54,205.51,40.4Zm-3,5.21a10.23,10.23,0,0,0-5.38-1.19c-3.06,0-4.89,1.47-4.89,4.1,0,3.1,1.71,4.46,4.26,4.46a7.35,7.35,0,0,0,6-3.14ZM213.06,26l-3,1.67v6.45h-2.59v2.51h2.59V50.67c0,3.46,1.39,4.74,4,4.74a9.37,9.37,0,0,0,3.86-.72l.2-2.59a6.94,6.94,0,0,1-3,.6c-1.59,0-2.11-.64-2.11-2.51V36.58h5.18V34.07h-5.18Zm25.56,1.16-4.46,8c-1.12,2-2.35,4.34-3.15,6-.8-1.62-2-3.93-3.14-6l-4.46-8h-3.55l9.56,16.83V55h3.1V43.9l9.56-16.79Zm18.85,17.27c0,7.09-4.05,11-9.15,11s-9-3.78-9-10.87,4-10.91,9.15-10.91S257.47,37.29,257.47,44.38Zm-3,.08c0-5.5-2.47-8.24-6.09-8.24s-6.05,2.74-6.05,8.24,2.43,8.36,6.05,8.36S254.49,50,254.49,44.46Zm18.7,1.83c0,4.58-2.26,6.53-5.17,6.53-3.34,0-4.94-2-4.94-6.53V34.07h-3V46.81c0,6,2.9,8.6,7.32,8.6a6.75,6.75,0,0,0,5.77-3V55h3V34.07h-3Zm11.06-16.36h13.26V27.11H281.15V55h3.1V42h7.65V39.16h-7.65Zm25.87,16.36c0,4.58-2.27,6.53-5.18,6.53-3.34,0-4.93-2-4.93-6.53V34.07h-3V46.81c0,6,2.91,8.6,7.33,8.6a6.76,6.76,0,0,0,5.77-3V55h3V34.07h-3Zm15.6-12.66a6.73,6.73,0,0,0-5.77,3V34.07h-3V55h3V42.75c0-4.58,2.26-6.53,5.17-6.53,3.34,0,4.94,2,4.94,6.53V55h3V42.23C333,36.22,330.14,33.63,325.72,33.63ZM352.42,26V55h-3V52.42a8.38,8.38,0,0,1-6.29,3c-4.18,0-7.48-3.19-7.48-10.55s3.49-11.23,7.88-11.23a7.44,7.44,0,0,1,5.89,2.79v-8.8Zm-3,13.42a6.83,6.83,0,0,0-5.66-3.15c-3.46,0-5.17,3-5.17,8.6,0,5.25,2,8,5.29,8a7.13,7.13,0,0,0,5.54-3Z"/><path class="cls-1" d="M53.08,70.52h7.25V71.6h-3v8.72H56.06V71.6h-3Zm12.82,2.6a2.63,2.63,0,0,0-1.31.37,2.25,2.25,0,0,0-.91.9h0V70H62.37V80.31h1.28V76.07a1.45,1.45,0,0,1,.09-.61,1.83,1.83,0,0,1,1.71-1.28c1.21,0,1.63,1,1.63,2.1v4h1.28V76.13C68.36,73.7,66.85,73.12,65.9,73.12Zm11.32,3.32c0,.26,0,.46,0,.59H72.24a2.25,2.25,0,0,0,2.41,2.44,4.69,4.69,0,0,0,1.95-.36l.22.91a5.58,5.58,0,0,1-2.34.46A3.28,3.28,0,0,1,71,76.91c0-2.12,1.25-3.79,3.3-3.79C76.61,73.12,77.22,75.14,77.22,76.44ZM76,76.11A1.82,1.82,0,0,0,74.21,74a2.12,2.12,0,0,0-2,2.07Zm12.35.08h2v2.92a4.22,4.22,0,0,1-1.68.26,3.59,3.59,0,0,1-3.78-4,3.66,3.66,0,0,1,3.94-3.94A5.07,5.07,0,0,1,91,71.9l.31-1a6.16,6.16,0,0,0-2.44-.45c-3.29,0-5.3,2.13-5.31,5.06a4.6,4.6,0,0,0,5,4.93,9.3,9.3,0,0,0,3-.53V75.17H88.34Zm6.21,4.12h1.28V70H94.55Zm10.88-3.57a3.44,3.44,0,0,1-3.5,3.74,3.35,3.35,0,0,1-3.37-3.63,3.43,3.43,0,0,1,3.49-3.73A3.33,3.33,0,0,1,105.43,76.74Zm-1.31.05c0-1.2-.59-2.71-2.1-2.71s-2.17,1.4-2.17,2.73c0,1.54.89,2.71,2.14,2.71S104.12,78.37,104.12,76.79Zm10.67-.08c0,2.51-1.58,3.77-3.15,3.77a2.48,2.48,0,0,1-2.35-1.33h-.05l-.06,1.16h-1.1c0-.47.06-1.19.06-1.81V70h1.26v4.42h0a2.61,2.61,0,0,1,2.4-1.3C113.57,73.12,114.81,74.57,114.79,76.71Zm-1.28,0c0-1.4-.72-2.61-2.09-2.61a2.06,2.06,0,0,0-2,1.57,3.28,3.28,0,0,0-.07.52V77.5a2.32,2.32,0,0,0,.06.46,2,2,0,0,0,1.92,1.5C112.72,79.46,113.51,78.37,113.51,76.75Zm8.93,1.88a9.47,9.47,0,0,0,.12,1.68h-1.17l-.1-.88h0a2.65,2.65,0,0,1-2.16,1,2,2,0,0,1-2.14-2c0-1.7,1.51-2.62,4.22-2.61v-.15a1.44,1.44,0,0,0-1.59-1.62,3.47,3.47,0,0,0-1.83.52l-.3-.84a4.37,4.37,0,0,1,2.32-.63c2.14,0,2.67,1.47,2.67,2.88Zm-1.24-1.91c-1.39,0-3,.22-3,1.59a1.13,1.13,0,0,0,1.21,1.22,1.75,1.75,0,0,0,1.7-1.18,1.4,1.4,0,0,0,.07-.4Zm4.39,3.59h1.28V70h-1.28Zm13.32-8.89a4.48,4.48,0,0,1,2,.41l.31-1a5.2,5.2,0,0,0-2.33-.44,4.88,4.88,0,0,0-5.11,5.15,4.59,4.59,0,0,0,4.84,5,6.22,6.22,0,0,0,2.58-.48l-.26-1a5,5,0,0,1-2.06.41c-2.39,0-3.77-1.54-3.77-3.94C135.08,72.89,136.61,71.42,138.91,71.42Zm9.73,7.21a9.47,9.47,0,0,0,.12,1.68H147.6l-.11-.88h0a2.63,2.63,0,0,1-2.15,1,2,2,0,0,1-2.15-2c0-1.7,1.51-2.62,4.23-2.61v-.15a1.45,1.45,0,0,0-1.6-1.62,3.5,3.5,0,0,0-1.83.52l-.29-.84a4.33,4.33,0,0,1,2.31-.63c2.15,0,2.67,1.47,2.67,2.88Zm-1.23-1.91c-1.4,0-3,.22-3,1.59a1.13,1.13,0,0,0,1.2,1.22,1.76,1.76,0,0,0,1.71-1.18,1.4,1.4,0,0,0,.07-.4Zm12.12-3.6a2.36,2.36,0,0,0-1.56.5,2.83,2.83,0,0,0-.78.91h0a2.07,2.07,0,0,0-2-1.41,2.43,2.43,0,0,0-2.21,1.3h0l-.06-1.14h-1.12c0,.58.06,1.18.06,1.9v5.13h1.25V76.07a1.79,1.79,0,0,1,.1-.62,1.74,1.74,0,0,1,1.58-1.28c1,0,1.47.81,1.47,1.93v4.21h1.25V76a2.39,2.39,0,0,1,.1-.64,1.66,1.66,0,0,1,1.52-1.16c1,0,1.52.81,1.52,2.17v4h1.25V76.17C161.84,73.73,160.46,73.12,159.53,73.12Zm12.14,3.58c0,2.53-1.55,3.78-3.2,3.78a2.47,2.47,0,0,1-2.17-1.11h0v3.82H165V75.58c0-.9,0-1.63-.06-2.3h1.15l.06,1.21h0a2.76,2.76,0,0,1,2.5-1.37C170.39,73.12,171.67,74.56,171.67,76.7Zm-1.28,0c0-1.41-.74-2.61-2.09-2.61a2.05,2.05,0,0,0-1.94,1.58,2.27,2.27,0,0,0-.09.52v1.21a2.75,2.75,0,0,0,.06.52,2,2,0,0,0,1.92,1.5C169.6,79.47,170.39,78.37,170.39,76.75Zm8.92,1.88a9.47,9.47,0,0,0,.12,1.68h-1.16l-.11-.88h0a2.63,2.63,0,0,1-2.15,1,2,2,0,0,1-2.15-2c0-1.7,1.51-2.62,4.22-2.61v-.15a1.44,1.44,0,0,0-1.59-1.62,3.5,3.5,0,0,0-1.83.52l-.29-.84a4.33,4.33,0,0,1,2.31-.63c2.15,0,2.67,1.47,2.67,2.88Zm-1.23-1.91c-1.4,0-3,.22-3,1.59a1.13,1.13,0,0,0,1.2,1.22,1.74,1.74,0,0,0,1.7-1.18,1.42,1.42,0,0,0,.08-.4Zm4.39,3.6h1.28v-7h-1.28Zm.64-9.81a.78.78,0,0,0-.81.8.76.76,0,0,0,.78.78.79.79,0,1,0,0-1.58Zm8.79,2.77H193c0,.51-.06,1.08-.06,1.93V79.3c0,1.61-.32,2.6-1,3.21a3.71,3.71,0,0,1-2.55.84,4.51,4.51,0,0,1-2.34-.58l.32-1a4,4,0,0,0,2.06.55c1.31,0,2.27-.68,2.27-2.45v-.79h0a2.52,2.52,0,0,1-2.24,1.17,3.14,3.14,0,0,1-3-3.43c0-2.38,1.55-3.73,3.17-3.73a2.35,2.35,0,0,1,2.19,1.22h0Zm-.21,2.78a1.74,1.74,0,0,0-.07-.58,1.84,1.84,0,0,0-1.79-1.36c-1.22,0-2.09,1-2.09,2.67,0,1.38.7,2.52,2.08,2.52a1.86,1.86,0,0,0,1.77-1.3,2.35,2.35,0,0,0,.1-.69Zm7.9-2.94a2.6,2.6,0,0,0-2.33,1.32h0l-.07-1.16H196c0,.58.05,1.18.05,1.9v5.13h1.28V76.09a1.89,1.89,0,0,1,1.8-1.91c1.21,0,1.63.95,1.63,2.08v4h1.28v-4.2C202.07,73.7,200.56,73.12,199.59,73.12Zm10.77-2.63a3.31,3.31,0,0,0-.82,2.46v.33h-1v1h1v6.06h1.26V74.25h1.71v-1H210.8V72.9c0-1.07.28-2,1.37-2A1.88,1.88,0,0,1,213,71l.17-1a3,3,0,0,0-1.09-.2A2.45,2.45,0,0,0,210.36,70.49Zm10.56,6.25a3.44,3.44,0,0,1-3.5,3.74,3.35,3.35,0,0,1-3.37-3.63,3.43,3.43,0,0,1,3.49-3.73A3.33,3.33,0,0,1,220.92,76.74Zm-1.31.05c0-1.2-.59-2.71-2.11-2.71s-2.16,1.4-2.16,2.73c0,1.54.89,2.71,2.14,2.71S219.61,78.37,219.61,76.79Zm5.18-2.13h-.06l0-1.38h-1.12c0,.66.06,1.37.06,2.2v4.83h1.26V76.57A3.47,3.47,0,0,1,225,76a1.78,1.78,0,0,1,1.71-1.64,1.89,1.89,0,0,1,.44,0v-1.2a1.36,1.36,0,0,0-.36,0A2.12,2.12,0,0,0,224.79,74.66Zm13-4.14,3.34,9.79h-1.35l-1-3.08h-3.47l-1,3.08h-1.31l3.33-9.79Zm.68,5.73-1-2.82c-.22-.64-.36-1.22-.51-1.79h0c-.14.58-.3,1.18-.49,1.77l-1,2.84Zm5.74-5.74a.78.78,0,0,0-.8.8.8.8,0,1,0,.8-.8Zm-.64,9.81h1.28v-7h-1.28Zm10.57-1.82c0,.62,0,1.34.06,1.81h-1.15L253,79.09h0a2.6,2.6,0,0,1-2.4,1.39c-1.7,0-3-1.44-3-3.58,0-2.34,1.44-3.78,3.16-3.78a2.35,2.35,0,0,1,2.12,1.08h0V70h1.28Zm-1.28-2.36a2.39,2.39,0,0,0-.06-.53A1.88,1.88,0,0,0,251,74.12c-1.33,0-2.11,1.16-2.11,2.72s.7,2.6,2.08,2.6a1.92,1.92,0,0,0,1.87-1.52,2.44,2.44,0,0,0,.06-.55Zm7-4.54h3v8.72h1.28V71.6h3V70.52h-7.25Zm9.9,3.06h-.06l0-1.38h-1.12c0,.66,0,1.37,0,2.2v4.83h1.27V76.57a3.47,3.47,0,0,1,.06-.6,1.78,1.78,0,0,1,1.71-1.64,1.94,1.94,0,0,1,.44,0v-1.2a1.36,1.36,0,0,0-.36,0A2.12,2.12,0,0,0,269.76,74.66Zm9.55,4a9.53,9.53,0,0,0,.11,1.68h-1.16l-.1-.88h-.05a2.63,2.63,0,0,1-2.15,1,2,2,0,0,1-2.15-2c0-1.7,1.51-2.62,4.23-2.61v-.15a1.45,1.45,0,0,0-1.6-1.62,3.52,3.52,0,0,0-1.83.52l-.29-.84a4.33,4.33,0,0,1,2.31-.63c2.15,0,2.68,1.47,2.68,2.88Zm-1.24-1.91c-1.4,0-3,.22-3,1.59a1.13,1.13,0,0,0,1.21,1.22,1.75,1.75,0,0,0,1.7-1.18,1.4,1.4,0,0,0,.07-.4Zm7.89-3.6a2.6,2.6,0,0,0-2.32,1.32h0l-.07-1.16H282.4c.05.58.06,1.18.06,1.9v5.13h1.28V76.09a1.89,1.89,0,0,1,1.8-1.91c1.21,0,1.63.95,1.63,2.08v4h1.28v-4.2C288.45,73.7,286.94,73.12,286,73.12Zm7.93,3.11c-.92-.35-1.34-.61-1.34-1.19s.42-1,1.17-1a2.65,2.65,0,0,1,1.44.41l.33-.93a3.61,3.61,0,0,0-1.74-.44,2.17,2.17,0,0,0-2.42,2.06c0,.85.59,1.54,1.86,2,.94.34,1.31.68,1.31,1.29s-.44,1-1.37,1a3.37,3.37,0,0,1-1.68-.51l-.33,1a4,4,0,0,0,2,.5c1.67,0,2.63-.89,2.63-2.13C295.73,77.31,295.1,76.7,293.89,76.23Zm11.23.47c0,2.53-1.54,3.78-3.2,3.78a2.45,2.45,0,0,1-2.16-1.11h0v3.82h-1.27V75.58c0-.9,0-1.63-.06-2.3h1.15l.06,1.21h0a2.76,2.76,0,0,1,2.5-1.37C303.84,73.12,305.12,74.56,305.12,76.7Zm-1.28,0c0-1.41-.74-2.61-2.09-2.61a2.05,2.05,0,0,0-1.94,1.58,2.25,2.25,0,0,0-.08.52v1.21a2.75,2.75,0,0,0,.06.52,2,2,0,0,0,1.91,1.5C303.05,79.47,303.84,78.37,303.84,76.75Zm8.92,1.88a9.47,9.47,0,0,0,.12,1.68h-1.16l-.11-.88h0a2.63,2.63,0,0,1-2.15,1,2,2,0,0,1-2.15-2c0-1.7,1.51-2.62,4.23-2.61v-.15a1.45,1.45,0,0,0-1.6-1.62,3.5,3.5,0,0,0-1.83.52l-.29-.84a4.33,4.33,0,0,1,2.31-.63c2.15,0,2.67,1.47,2.67,2.88Zm-1.23-1.91c-1.4,0-3,.22-3,1.59a1.13,1.13,0,0,0,1.2,1.22,1.74,1.74,0,0,0,1.7-1.18,1.14,1.14,0,0,0,.08-.4Zm5.55-2.06H317l0-1.38h-1.12c0,.66.06,1.37.06,2.2v4.83h1.26V76.57a3.47,3.47,0,0,1,.06-.6A1.79,1.79,0,0,1,319,74.33a1.89,1.89,0,0,1,.44,0v-1.2a1.36,1.36,0,0,0-.36,0A2.12,2.12,0,0,0,317.08,74.66Zm10.23,1.78c0,.26,0,.46,0,.59h-4.94a2.25,2.25,0,0,0,2.41,2.44,4.72,4.72,0,0,0,1.95-.36l.22.91a5.55,5.55,0,0,1-2.34.46,3.28,3.28,0,0,1-3.46-3.57c0-2.12,1.24-3.79,3.3-3.79C326.7,73.12,327.31,75.14,327.31,76.44Zm-1.23-.33A1.82,1.82,0,0,0,324.3,74a2.12,2.12,0,0,0-2,2.07Zm7.41-3a2.61,2.61,0,0,0-2.33,1.32h0l-.08-1.16h-1.13c0,.58.05,1.18.05,1.9v5.13h1.29V76.09a1.85,1.85,0,0,1,1.8-1.91c1.2,0,1.63.95,1.63,2.08v4H336v-4.2C336,73.7,334.46,73.12,333.49,73.12Zm8.92,1a2.94,2.94,0,0,1,1.49.34l.29-1a4.38,4.38,0,0,0-1.78-.36,3.58,3.58,0,0,0-3.78,3.73,3.36,3.36,0,0,0,3.5,3.61,4.61,4.61,0,0,0,2-.43l-.22-1a3.78,3.78,0,0,1-1.57.34,2.41,2.41,0,0,1-2.44-2.63A2.44,2.44,0,0,1,342.41,74.15Zm8.92-.87-1.39,4.13c-.17.51-.32,1-.45,1.47h0c-.11-.42-.29-1-.44-1.44l-1.55-4.16h-1.39l2.59,6.48a.89.89,0,0,1,.09.33.84.84,0,0,1-.1.31,3.86,3.86,0,0,1-1.07,1.43,3.34,3.34,0,0,1-1.12.62l.32,1.07a3.39,3.39,0,0,0,1.57-.82c.87-.76,1.5-2,2.41-4.4l1.92-5Z"/><path class="cls-2" d="M18.27,45.93H14.41v9H6.8V27.1h12c6.53,0,10.86,2.51,10.86,9.24,0,7.09-4.69,9.59-11.38,9.59m.32-12.54H14.41v6.26h4.06c2.5,0,3.5-1.08,3.5-3.19,0-1.83-.91-3.07-3.38-3.07M49.27,55V34.07h-7.2V46c0,2.63-.91,3.35-2.39,3.35s-2.39-.72-2.39-3.43V34.07h-7.2V46.85c0,5.49,2.19,8.56,6.77,8.56a7.9,7.9,0,0,0,5.21-1.83V55Zm13.3.44a7.46,7.46,0,0,1-4.66-1.83V55H50.74V28.81L57.91,26v9.59a7.35,7.35,0,0,1,4.93-1.91c3.94,0,7,3.07,7,10.83,0,7.49-2.67,10.95-7.24,10.95M60.46,39.52a3.89,3.89,0,0,0-2.55,1v8a3.83,3.83,0,0,0,2.59,1c1.47,0,2.22-.91,2.22-4.81,0-4.18-.75-5.18-2.26-5.18M77.89,55V26l-7.17,2.86V55Zm18.9.44c5.33,0,8.64-2.23,8.64-7,0-4.14-2.39-5.53-8.28-7.08-1.83-.56-2.07-.8-2.07-1.44s.36-.91,1.75-.91a17.08,17.08,0,0,1,6.65,1.75l1.59-5.53a21.5,21.5,0,0,0-8-1.52c-5.69,0-8.52,2.55-8.52,6.85s2.23,5.65,8.68,7.36c1.35.36,1.67.64,1.67,1.32s-.52,1-1.91,1a20.08,20.08,0,0,1-7.21-1.83L88.07,53.7a24.4,24.4,0,0,0,8.72,1.71M125.61,55V42.19c0-5.5-2.19-8.56-6.77-8.56a8,8,0,0,0-5.25,1.83V26l-7.17,2.86V55h7.17V43c0-2.63.91-3.35,2.42-3.35s2.39.72,2.39,3.42V55ZM83.34,32.56c-2.35,0-4.1-1.35-4.1-3.54,0-2,1.75-3.47,4.1-3.47S87.52,27,87.52,29c0,2.19-1.72,3.54-4.18,3.54m-3.59,1.51h7.17V55H79.75Z"/></g></g></svg>