<svg xmlns="http://www.w3.org/2000/svg" viewBox="0 0 352.13 82.13"><defs><style>.cls-1{fill:#6cadc6;}.cls-2{fill:#fff;}</style></defs><title>PWYF</title><g id="Layer_2" data-name="Layer 2"><g id="Layer_1-2" data-name="Layer 1"><path class="cls-1" d="M120.61,0H10.69A10.7,10.7,0,0,0,0,10.7V53.44a10.7,10.7,0,0,0,10.69,10.7H33.26l15.33,18-4.85-18h76.87a10.7,10.7,0,0,0,10.7-10.7V10.7A10.7,10.7,0,0,0,120.61,0"/><path class="cls-1" d="M165.06,27.08h3l-5.57,27.84H159l-4.37-17.81c-.44-1.84-1-4.58-1.36-6.29-.31,1.71-.91,4.38-1.35,6.29l-4.37,17.81h-3.43l-5.56-27.84h3.1L144.93,45c.32,1.83.8,4.85,1,6.2.24-1.35.87-4.33,1.31-6.12l4.41-18H155l4.42,18c.44,1.79,1.07,4.77,1.31,6.12.24-1.35.72-4.37,1-6.2Zm14.26,6.52a6.75,6.75,0,0,0-5.76,3V25.93l-3,1.67V54.92h3V42.71c0-4.57,2.27-6.52,5.17-6.52,3.34,0,4.93,2,4.93,6.52V54.92h3V42.19C186.64,36.19,183.74,33.6,179.32,33.6Zm26,6.76V54.92h-3V52.37a8.58,8.58,0,0,1-6.52,3c-3.27,0-6.69-1.63-6.69-6.68,0-4.7,3.86-6.68,8-6.68a11.17,11.17,0,0,1,5.21,1.19V40.72c0-3.1-1.47-4.61-4.53-4.61a10.94,10.94,0,0,0-5.69,1.59L191,35.27a15,15,0,0,1,7-1.67C202.51,33.6,205.34,35.51,205.34,40.36Zm-3,5.22a10.06,10.06,0,0,0-5.37-1.2c-3.06,0-4.89,1.47-4.89,4.1,0,3.1,1.71,4.45,4.26,4.45a7.31,7.31,0,0,0,6-3.14Zm10.54-19.65-3,1.67V34h-2.58v2.51h2.58V50.63c0,3.46,1.39,4.73,4,4.73a9.57,9.57,0,0,0,3.86-.71l.2-2.59a7.1,7.1,0,0,1-2.95.6c-1.59,0-2.1-.64-2.1-2.51V36.55h5.16V34h-5.16Zm25.53,1.15-4.46,8c-1.12,2-2.34,4.33-3.14,6-.8-1.63-2-3.93-3.14-6l-4.46-8h-3.54l9.55,16.82v11h3.1V43.86l9.54-16.78Zm18.84,17.26c0,7.08-4,11-9.15,11s-9-3.78-9-10.86,4.06-10.9,9.15-10.9S257.26,37.26,257.26,44.34Zm-3,.08c0-5.49-2.47-8.23-6.09-8.23s-6,2.74-6,8.23,2.42,8.35,6,8.35S254.28,49.91,254.28,44.42ZM273,46.25c0,4.57-2.27,6.52-5.18,6.52-3.33,0-4.93-2-4.93-6.52V34h-3V46.77c0,6,2.91,8.59,7.32,8.59a6.74,6.74,0,0,0,5.77-3v2.55h3V34h-3ZM284,29.9h13.24V27.08H280.91V54.92H284V42h7.64V39.13H284Zm25.84,16.35c0,4.57-2.27,6.52-5.17,6.52-3.34,0-4.93-2-4.93-6.52V34h-3V46.77c0,6,2.9,8.59,7.31,8.59a6.73,6.73,0,0,0,5.77-3v2.55h3V34h-3ZM325.45,33.6a6.75,6.75,0,0,0-5.77,3V34h-3V54.92h3V42.71c0-4.57,2.26-6.52,5.17-6.52,3.34,0,4.93,2,4.93,6.52V54.92h3V42.19C332.76,36.19,329.86,33.6,325.45,33.6Zm26.68-7.67v29h-3V52.38a8.35,8.35,0,0,1-6.29,3c-4.17,0-7.47-3.19-7.47-10.54s3.49-11.22,7.87-11.22a7.44,7.44,0,0,1,5.89,2.79V27.6Zm-3,13.4a6.84,6.84,0,0,0-5.65-3.14c-3.46,0-5.17,3-5.17,8.59,0,5.25,2,8,5.29,8a7.1,7.1,0,0,0,5.53-3Z"/><path class="cls-2" d="M18.77,27.08H6.8V54.92h7.6v-9h3.85c6.69,0,11.38-2.5,11.38-9.58C29.63,29.59,25.29,27.08,18.77,27.08Zm-.32,12.53h-4V33.37h4.17C21,33.37,22,34.6,22,36.43,22,38.54,21,39.61,18.45,39.61ZM42,34h7.2V54.92H42V53.53a7.87,7.87,0,0,1-5.2,1.83c-4.58,0-6.77-3.06-6.77-8.55V34h7.2V45.89c0,2.71.92,3.43,2.39,3.43S42,48.6,42,46Zm20.76-.44a7.35,7.35,0,0,0-4.93,1.91V25.93L50.7,28.79V54.92h7.16V53.53a7.45,7.45,0,0,0,4.65,1.83c4.58,0,7.24-3.46,7.24-10.94C69.75,36.67,66.73,33.6,62.79,33.6ZM60.45,49.47a3.84,3.84,0,0,1-2.59-1v-8a3.91,3.91,0,0,1,2.55-1c1.51,0,2.26,1,2.26,5.17C62.67,48.56,61.92,49.47,60.45,49.47ZM70.66,28.79l7.16-2.86v29H70.66Zm34.68,19.53c0,4.81-3.3,7-8.63,7A24.34,24.34,0,0,1,88,53.65l1.67-5.41a20.25,20.25,0,0,0,7.2,1.83c1.39,0,1.91-.32,1.91-1s-.32-1-1.67-1.31c-6.45-1.71-8.67-3-8.67-7.36S91.26,33.6,97,33.6a21.41,21.41,0,0,1,8,1.52l-1.59,5.52a17,17,0,0,0-6.64-1.75c-1.39,0-1.75.28-1.75.92s.24.88,2.07,1.43C103,42.79,105.34,44.18,105.34,48.32Zm20.16-6.16V54.92h-7.2V43.07c0-2.71-.91-3.42-2.38-3.42s-2.43.71-2.43,3.34V54.92h-7.16V28.79l7.16-2.86v9.5a8,8,0,0,1,5.25-1.83C123.31,33.6,125.5,36.66,125.5,42.16ZM87.45,29c0,2.19-1.72,3.54-4.18,3.54s-4.1-1.35-4.1-3.54c0-2,1.75-3.46,4.1-3.46S87.45,27,87.45,29ZM79.69,34h7.16V54.92H79.69Z"/></g></g></svg>