<svg xmlns="http://www.w3.org/2000/svg" viewBox="-886 232.898 525.364 388.592"><defs><style>.a,.d{fill:#35cdaa;}.b{opacity:0.1;}.c,.e{fill:none;}.c,.d,.e{stroke:#000;stroke-miterlimit:10;stroke-width:2px;}.e{stroke-dasharray:12;}</style></defs><g transform="translate(-1033.53 119.388)"><path class="a" d="M267.23,503.727H369.9V194.8c-9.63-.581-19.356-.687-29.121-.648-25.037.106-51.458-2.487-73.552-14.159Z" transform="translate(-3.855 -2.109)"/><path class="b" d="M600.31,339.61c26.827,8.1,55.455,12.349,81.295,22.695V508.868H600.31" transform="translate(-14.582 -7.249)"/><path class="b" d="M481.66,240.09c17.178,18.243,30.728,39.147,47.887,58.658,17.8,20.237,40.212,30.466,64.039,37.657V505.663H481.66Z" transform="translate(-10.76 -4.044)"/><path class="b" d="M376.32,195.29c28.908,1.723,56.771,7.617,80.385,26.13a169.468,169.468,0,0,1,18.659,17.207V504.22H376.32Z" transform="translate(-7.368 -2.601)"/><path class="b" d="M260.7,501.634H154.5l.484-386.431c37.976-2.855,61.687,24.4,85.263,47.77l.968.968A76.572,76.572,0,0,0,260.7,177.907Z" transform="translate(-0.224 -0.016)"/><path class="c" d="M283.757,186.6a108.692,108.692,0,0,1-19.733-7.742A78.391,78.391,0,0,1,244.068,164.9l-.968-.968c-24.195-23.372-45.244-49.425-95.57-49.425"/><path class="c" d="M301.452,192.107c-4.452-.832-8.846-1.858-13.162-3.107" transform="translate(-4.533 -2.399)"/><path class="c" d="M677.5,359.494c-26.508-10.346-59.7-15.562-87.189-23.663-24.417-7.191-47.374-17.42-65.607-37.657-17.585-19.511-31.463-40.415-49.058-58.658a171.941,171.941,0,0,0-19.124-17.207c-24.195-18.533-52.735-24.427-82.34-26.13-9.872-.581-19.859-.687-29.837-.648-14.052.058-28.521-.7-42.457-3.3" transform="translate(-4.971 -2.503)"/><circle class="d" cx="6.775" cy="6.775" r="6.775" transform="translate(283.476 181.762)"/><line class="e" y2="306.791" transform="translate(290.251 195.311)"/></g></svg>