<svg xmlns="http://www.w3.org/2000/svg" viewBox="-3405.339 930 15.33 16"><defs><style>.a{fill:#222;}</style></defs><g transform="translate(-3417.015 920)"><path class="a" d="M23.006,10H11.676V26h15.33V14.006Zm3.065,4H23.006V10.935ZM15.41,25.33l5.6-6.2,5.334,5.334v.869Zm10.932-1.8L21.009,18.2,14.541,25.33h-2.2V10.663h10v4h4Z"/><path class="a" d="M25.344,30a2,2,0,1,0,2,2,1.962,1.962,0,0,0-2-2Zm0,3.337A1.334,1.334,0,1,1,26.678,32,1.342,1.342,0,0,1,25.344,33.337Z" transform="translate(-9.337 -16)"/></g></svg>