<svg xmlns="http://www.w3.org/2000/svg" viewBox="0 0 186.48 186.48"><defs><style>.cls-1{fill:#222;}.cls-2{fill:#fff;}</style></defs><title>mail</title><g id="Layer_2" data-name="Layer 2"><g id="Layer_1-2" data-name="Layer 1"><rect class="cls-1" width="186.48" height="186.48"/><path class="cls-2" d="M51.17,63.38a9.26,9.26,0,0,0-4,.75L90.8,99.7a4.94,4.94,0,0,0,4.88,0L139.3,64.13a8.79,8.79,0,0,0-3.84-.75Zm-6.92,4.51a10.62,10.62,0,0,0-.34,2.71v45.72a9.84,9.84,0,0,0,.49,3.23L75.27,93.31Zm98,0L111.21,93.31l30.87,26.24a10.47,10.47,0,0,0,.49-3.35V70.49a10.38,10.38,0,0,0-.3-2.6ZM79.1,96.39,47.79,123a10.13,10.13,0,0,0,3.45.53h84.15a9.69,9.69,0,0,0,3.31-.53L107.38,96.39c-3.13,2.52-6.31,5.18-9.44,7.63a10.44,10.44,0,0,1-9.4,0c-3.15-2.46-6.31-5.09-9.44-7.63Z"/></g></g></svg>