<svg xmlns="http://www.w3.org/2000/svg" viewBox="0 0 152.37 123.68"><defs><style>.cls-1{fill:#222;}</style></defs><title>twitter-min</title><g id="Layer_2" data-name="Layer 2"><g id="Layer_1-2" data-name="Layer 1"><path class="cls-1" d="M152.36,14.6a62.57,62.57,0,0,1-18,4.92A31.38,31.38,0,0,0,148.1,2.23a62.71,62.71,0,0,1-19.85,7.59A31.29,31.29,0,0,0,75,38.33,88.74,88.74,0,0,1,10.6,5.68a31.29,31.29,0,0,0,9.67,41.73A31.13,31.13,0,0,1,6.11,43.5v.39A31.28,31.28,0,0,0,31.18,74.54a31.33,31.33,0,0,1-14.12.54,31.29,31.29,0,0,0,29.2,21.71A62.73,62.73,0,0,1,7.44,110.17,63.8,63.8,0,0,1,0,109.68a88.47,88.47,0,0,0,47.92,14c57.49,0,88.94-47.63,88.94-88.94,0-1.33,0-2.67-.09-4a63.49,63.49,0,0,0,15.6-16.18"/></g></g></svg>