<?xml version="1.0" encoding="UTF-8"?>
<svg fill="#1F1F1F" width="100pt" height="100pt" version="1.1" viewBox="0 0 100 100" xmlns="http://www.w3.org/2000/svg">
 <g>
  <path d="m67 40.871h-34c-1.1055 0-2 0.89453-2 2v12h0.10938c-0.070313 0.20312-0.10547 0.41406-0.10938 0.62891v12c0.003906 0.21484 0.039062 0.42578 0.10938 0.62891h-0.10938v11c0 0.53125 0.21094 1.0391 0.58594 1.4141s0.88281 0.58594 1.4141 0.58594h34c0.53125 0 1.0391-0.21094 1.4141-0.58594s0.58594-0.88281 0.58594-1.4141v-11h-0.10938c0.070313-0.20312 0.10547-0.41406 0.10938-0.62891v-12c-0.003906-0.21094-0.039062-0.42188-0.10938-0.62109h0.10938v-12c0.003906-0.53125-0.20703-1.043-0.58203-1.418-0.375-0.37891-0.88672-0.58984-1.418-0.58984zm-2 12.629h-13v-8.6289h13zm-13 4h13v8h-13zm-4 8h-13v-8h13zm0-20.629v8.6289h-13v-8.6289zm-13 24.629h13v7.6289h-13zm17 7.6289v-7.6289h13v7.6289z"/>
  <path d="m84.719 93.629v-63.84c0-0.52344-0.20312-1.0234-0.57031-1.3984l-22.938-23.391c-0.37891-0.38281-0.89453-0.60156-1.4297-0.60156h-42.5c-1.1055 0-2 0.89844-2 2v87.23c0 0.53125 0.21094 1.0391 0.58594 1.4141s0.88281 0.58594 1.4141 0.58594h65.438c0.53125 0 1.0391-0.21094 1.4141-0.58594s0.58594-0.88281 0.58594-1.4141zm-23.098-82.52l17.277 17.641h-17.277zm-42.34 80.52v-83.258h38.34v22.379c0 0.53125 0.21094 1.0391 0.58594 1.4141s0.88281 0.58594 1.4141 0.58594h21.102l-0.003906 58.879z"/>
 </g>
</svg>
