<svg xmlns="http://www.w3.org/2000/svg" xmlns:xlink="http://www.w3.org/1999/xlink" viewBox="0 0 248.35 248.35"><defs><style>.cls-1{fill:none;}.cls-2{fill:#1da1f2;}.cls-3{clip-path:url(#clip-path);}.cls-4{fill:#fff;}</style><clipPath id="clip-path"><rect class="cls-1" x="48" y="62.27" width="152.36" height="123.82"/></clipPath></defs><title>twitter</title><g id="Layer_2" data-name="Layer 2"><g id="Layer_2-2" data-name="Layer 2"><rect class="cls-2" width="248.35" height="248.35"/><g id="Twitter"><g class="cls-3"><g class="cls-3"><path class="cls-4" d="M200.36,76.92a62.48,62.48,0,0,1-18,4.92,31.36,31.36,0,0,0,13.74-17.29,62.59,62.59,0,0,1-19.85,7.59A31.29,31.29,0,0,0,123,100.65,88.74,88.74,0,0,1,58.6,68a31.29,31.29,0,0,0,9.67,41.73,31.13,31.13,0,0,1-14.16-3.91c0,.13,0,.26,0,.39a31.28,31.28,0,0,0,25.07,30.65,31.33,31.33,0,0,1-14.12.54,31.29,31.29,0,0,0,29.2,21.71,62.71,62.71,0,0,1-38.82,13.38A63.41,63.41,0,0,1,48,172a88.47,88.47,0,0,0,47.92,14c57.49,0,88.94-47.63,88.94-88.94q0-2-.09-4a63.5,63.5,0,0,0,15.6-16.18"/></g></g></g></g></g></svg>